<svg width="33" height="41" viewBox="0 0 33 41" fill="none" xmlns="http://www.w3.org/2000/svg">
<path d="M16.5 20.0213C17.6344 20.0213 18.6058 19.6289 19.4143 18.844C20.2214 18.0605 20.625 17.1182 20.625 16.017C20.625 14.9159 20.2214 13.9728 19.4143 13.188C18.6058 12.4045 17.6344 12.0128 16.5 12.0128C15.3656 12.0128 14.3949 12.4045 13.5878 13.188C12.7793 13.9728 12.375 14.9159 12.375 16.017C12.375 17.1182 12.7793 18.0605 13.5878 18.844C14.3949 19.6289 15.3656 20.0213 16.5 20.0213ZM16.5 34.7369C20.6938 30.9996 23.8047 27.604 25.8328 24.5501C27.8609 21.4975 28.875 18.7866 28.875 16.4174C28.875 12.7802 27.6801 9.80175 25.2904 7.48195C22.902 5.16349 19.9719 4.00426 16.5 4.00426C13.0281 4.00426 10.0973 5.16349 7.70756 7.48195C5.31919 9.80175 4.125 12.7802 4.125 16.4174C4.125 18.7866 5.13906 21.4975 7.16719 24.5501C9.19531 27.604 12.3062 30.9996 16.5 34.7369ZM16.5 40.0426C10.9656 35.471 6.83237 31.2245 4.10025 27.303C1.36675 23.3828 0 19.7543 0 16.4174C0 11.4121 1.65894 7.42456 4.97681 4.45473C8.29331 1.48491 12.1344 0 16.5 0C20.8656 0 24.7067 1.48491 28.0232 4.45473C31.3411 7.42456 33 11.4121 33 16.4174C33 19.7543 31.6339 23.3828 28.9018 27.303C26.1683 31.2245 22.0344 35.471 16.5 40.0426Z" fill="url(#paint0_linear_4_223)"/>
<defs>
<linearGradient id="paint0_linear_4_223" x1="0" y1="0" x2="52.662" y2="8.24573" gradientUnits="userSpaceOnUse">
<stop stop-color="#9372C5"/>
<stop offset="0.369438" stop-color="#E76BB5"/>
<stop offset="0.52721" stop-color="#FF7487"/>
<stop offset="0.719337" stop-color="#FF9F4B"/>
<stop offset="1" stop-color="#FFD700"/>
</linearGradient>
</defs>
</svg>
