<svg width="56" height="44" viewBox="0 0 56 44" fill="none" xmlns="http://www.w3.org/2000/svg">
<path d="M22.7832 0.285689C20.6418 0.959862 16.9933 3.39878 4.32279 12.5993C1.92353 14.3442 -0.0196782 15.7917 0.000150412 15.8313C0.0398077 15.8512 0.832953 15.5141 1.80456 15.0778C4.26331 13.9278 6.84103 13.214 8.09023 13.3329C9.24029 13.4519 9.85498 13.8683 10.8464 15.1572C11.5008 16.0098 13.4043 20.154 13.4043 20.7092C13.4043 20.848 11.5602 21.542 8.82389 22.4343L4.26331 23.9016H8.09023C11.7784 23.9016 11.9766 23.9214 13.6621 24.4766C15.3475 25.0318 15.4863 25.131 16.9338 26.6181C18.4209 28.1449 19.8883 29.0769 21.3952 29.4338C21.9108 29.5527 21.8513 29.4536 20.7607 28.1647C19.0753 26.1621 18.2028 24.2982 16.6165 19.4203C15.1691 14.9787 14.4354 13.2536 13.2655 11.6673C12.8888 11.1518 12.6508 10.6164 12.7103 10.4974C13.0672 9.9224 18.4011 6.86879 20.0866 6.27394C20.84 6.01616 20.959 6.01616 21.2168 6.27394C22.0892 7.12657 22.6048 11.3104 23.616 25.6862C23.7945 28.0854 24.0126 30.3657 24.1118 30.7425C24.3695 31.6546 24.1911 19.4203 23.9135 16.1684C23.4772 11.013 22.4858 4.68764 22.0496 4.23159C21.6927 3.83501 19.571 4.96525 15.5855 7.64211C13.6819 8.93097 11.9172 10.1207 11.6792 10.319L11.2628 10.6362L11.8577 11.5285C12.8491 12.9562 14.3362 16.2279 15.1691 18.766C16.101 21.6411 16.3191 22.5136 16.0019 22.3351C15.6251 22.0972 14.5147 19.6979 13.6026 17.1202C12.5517 14.1459 11.3421 12.3018 9.87481 11.3104C9.02218 10.7552 8.9032 10.5966 9.18081 10.4974C9.37909 10.4181 9.59721 10.3983 9.69635 10.4578C9.77566 10.4974 9.83515 10.4181 9.85498 10.2793C9.85498 9.96206 14.6138 6.49205 18.1235 4.23159C20.7012 2.56598 23.1402 1.53489 25.1032 1.27712C26.3127 1.11849 35.196 2.40735 39.2807 3.31947C43.2662 4.21176 47.7871 5.73856 47.4501 6.09548C47.3906 6.15496 46.8155 5.99633 46.2009 5.75839C44.7137 5.20319 39.4195 3.91433 37.0004 3.49793C32.0432 2.66512 26.2136 2.12975 25.2023 2.40735C24.3695 2.6453 23.7152 3.29964 23.7152 3.8945C23.7152 7.30502 25.1627 24.7939 25.6187 27.0345C25.7575 27.6889 26.3722 28.0259 28.1568 28.4423C33.8278 29.7709 47.6483 30.1476 52.6253 29.1363C53.2202 29.0174 53.7357 28.9777 53.7952 29.0372C53.8547 29.0967 53.9538 29.5527 54.0133 30.0485C54.0926 30.7425 54.0332 31.0399 53.7357 31.3572C53.1607 32.0115 51.5942 32.7253 49.5122 33.2805C47.688 33.7762 47.3906 33.7961 42.5524 33.7961C38.3487 33.7961 36.9805 33.7168 34.4226 33.34C30.675 32.8046 28.4542 32.2891 26.8679 31.6348C26.2136 31.3572 25.5989 31.1787 25.5196 31.2184C25.4205 31.2778 25.3808 31.6149 25.4006 31.9718C25.4403 32.3288 25.4601 33.0029 25.4799 33.4788C25.4998 34.034 25.5791 34.2918 25.7179 34.2125C25.8369 34.1133 25.8765 33.6771 25.7774 33.0029C25.6782 32.1106 25.6981 31.9322 25.9558 31.9322C26.1938 31.9322 26.2929 32.2494 26.4119 33.34C26.5705 34.9461 26.4714 34.8668 29.0689 35.5013C31.8251 36.1755 32.1622 36.116 29.6241 35.3824L27.1059 34.6487L26.9671 33.578C26.9076 32.9831 26.8878 32.4676 26.9473 32.4081C27.0067 32.3486 28.6129 32.6658 30.5362 33.1021C32.4596 33.5581 34.2045 33.915 34.4226 33.915C34.7003 33.915 34.9977 34.3116 35.5331 35.3824L36.2865 36.8695L37.7737 37.0281C38.6065 37.1075 40.8075 37.1868 42.6515 37.1868C45.5663 37.1868 46.2802 37.1273 47.9458 36.7109L49.8692 36.2152L50.0873 35.2634C50.1864 34.728 50.2856 34.153 50.2856 33.9944C50.2856 33.8357 50.583 33.5978 50.9399 33.4788C51.277 33.34 52.0503 33.0029 52.6253 32.7055L53.6564 32.1503V33.0426C53.6564 33.5383 53.5573 34.1133 53.4581 34.3116C53.2797 34.6289 53.2995 34.6685 53.5771 34.5694C53.8745 34.4504 53.8944 34.6487 53.815 36.7109C53.6564 40.1412 53.3193 40.6766 50.7813 41.331C45.9431 42.5802 33.1338 42.7983 26.2136 41.7672L24.429 41.5094L24.9644 41.9655C25.6584 42.5603 27.6413 43.175 29.7034 43.4328C34.2244 43.988 50.2062 43.2345 52.3081 42.3422C53.4581 41.8862 54.1918 41.1128 54.5289 40.1016C54.9651 38.7532 55.3419 31.3373 55.0841 29.176C54.866 27.3518 54.6875 27.0345 54.1125 27.3319C53.0021 27.9268 46.7759 28.1846 39.4789 27.9466C32.9355 27.7285 27.8792 27.0543 27.1455 26.3207C26.6697 25.8448 25.5196 15.296 25.1825 8.27663C25.0635 6.01616 25.0834 5.5601 25.3213 5.5601C25.817 5.57993 27.3637 6.37308 27.9387 6.90845C28.6922 7.62228 29.4457 9.12926 29.6043 10.2198L29.7233 11.1121H28.3947H27.0861V14.3838V17.6556H29.5845H32.0829L31.9837 14.0269C31.8846 10.0414 31.6863 9.04994 30.6354 7.46365C29.7629 6.15496 28.4542 5.24285 26.749 4.7273C25.9558 4.48936 25.3015 4.23159 25.3015 4.13244C25.3015 3.73587 26.5507 3.37896 28.018 3.37896C31.5673 3.37896 41.5015 5.22302 46.2009 6.74982C49.4528 7.82057 49.8097 8.118 50.8606 10.775C51.3365 12.0242 51.7727 12.8174 51.971 12.857C52.3279 12.9364 52.2882 12.6786 51.5546 10.319C50.9994 8.55423 50.9994 8.5344 51.3761 8.5344C52.3477 8.5344 53.7754 10.7949 53.9935 12.7182L54.1125 13.6898H52.9822H51.852L51.9115 16.6047L51.971 19.5393H53.9538H55.9367L55.9962 16.9616C56.016 15.5339 55.9565 13.8088 55.8574 13.095C55.4212 10.2991 53.5573 7.89988 51.3166 7.20588C50.702 7.02742 49.9683 6.67051 49.6907 6.43256C47.8863 4.82645 41.1446 2.52632 34.2244 1.13832C28.6922 0.00808799 24.6273 -0.289341 22.7832 0.285689Z" fill="url(#paint0_linear_24_37)"/>
<defs>
<linearGradient id="paint0_linear_24_37" x1="0" y1="43.6226" x2="86.4161" y2="22.5455" gradientUnits="userSpaceOnUse">
<stop stop-color="#9372C5"/>
<stop offset="0.369438" stop-color="#E76BB5"/>
<stop offset="0.52721" stop-color="#FF7487"/>
<stop offset="0.719337" stop-color="#FF9F4B"/>
<stop offset="1" stop-color="#FFD700"/>
</linearGradient>
</defs>
</svg>
